# xmcd
# 
# Track frame offsets:
#     150
#     17810
#     38815
#     52045
#     70635
#     88782
#     107420
#     123332
#     144260
#     167577
#     183330
#     195132
#     205570
#     225745
#     257697
# 
# Disc length: 4289
# 
# Revision: 19
# Processed by: cddbd v1.5.2PL0 Copyright (c) Steve Scherf et al.
# Submitted via: fre:ac v1.0.31
# 
DISCID=ba10bf0f
DTITLE=Various Artist - The X-Files: The Album - Fight The Future
DYEAR=1998
DGENRE=Soundtrack
TTITLE0=Mike Oldfield - Tubular X
TTITLE1=Filter - One
TTITLE2=Tonic - Flower Man
TTITLE3=Foo Fighters - Walking After You
TTITLE4=Ween - Beacon Light
TTITLE5=Sting and Aswad - Invisible Sun
TTITLE6=The Cardigans - Deuce
TTITLE7=Better Than Ezra - One More Murder
TTITLE8=The Cure - More Than This
TTITLE9=Björk - Hunter
TTITLE10=Soul Coughing - 16 Horses
TTITLE11=X - Crystal Ship
TTITLE12=Sarah McLachlan - Black
TTITLE13=Noel Gallagher - Teotihuacan
TTITLE14=The Dust Brothers - The X-Files Theme
EXTD=
EXTT0=
EXTT1=
EXTT2=
EXTT3=
EXTT4=
EXTT5=
EXTT6=
EXTT7=
EXTT8=
EXTT9=
EXTT10=
EXTT11=
EXTT12=
EXTT13=
EXTT14=
PLAYORDER=
